<svg xmlns="http://www.w3.org/2000/svg" viewBox="0 0 300 200" preserveAspectRatio="xMidYMid meet"><rect y="0" width="300" height="14.29" fill="#CC0001"/><rect y="14.29" width="300" height="14.29" fill="#fff"/><rect y="28.57" width="300" height="14.29" fill="#CC0001"/><rect y="42.86" width="300" height="14.29" fill="#fff"/><rect y="57.14" width="300" height="14.29" fill="#CC0001"/><rect y="71.43" width="300" height="14.29" fill="#fff"/><rect y="85.71" width="300" height="14.29" fill="#CC0001"/><rect y="100" width="300" height="14.29" fill="#fff"/><rect y="114.29" width="300" height="14.29" fill="#CC0001"/><rect y="128.57" width="300" height="14.29" fill="#fff"/><rect y="142.86" width="300" height="14.29" fill="#CC0001"/><rect y="157.14" width="300" height="14.29" fill="#fff"/><rect y="171.43" width="300" height="14.29" fill="#CC0001"/><rect y="185.71" width="300" height="14.29" fill="#fff"/><rect width="150" height="107.14" fill="#010066"/><circle cx="60" cy="53.5" r="26" fill="#FFCC00"/><circle cx="68.32" cy="53.5" r="21.32" fill="#010066"/><polygon points="105,33.5 107.45,42.78 113.68,35.48 111.86,44.9 120.64,41.03 114.91,48.73 124.5,49.05 116,53.5 124.5,57.95 114.91,58.27 120.64,65.97 111.86,62.1 113.68,71.52 107.45,64.22 105,73.5 102.55,64.22 96.32,71.52 98.14,62.1 89.36,65.97 95.09,58.27 85.5,57.95 94,53.5 85.5,49.05 95.09,48.73 89.36,41.03 98.14,44.9 96.32,35.48 102.55,42.78" fill="#FFCC00"/></svg>
