<svg xmlns="http://www.w3.org/2000/svg" aria-hidden="true" style="display:none">
  <symbol id="briefcase" viewBox="0 0 48 48"><path d="M15 15V11a4 4 0 0 1 4-4h10a4 4 0 0 1 4 4v4M7 17h34v20a4 4 0 0 1-4 4H11a4 4 0 0 1-4-4V17Z" fill="none" stroke="currentColor" stroke-width="2.5" stroke-linejoin="round"/><path d="M7 25h34M20 25v3h8v-3" fill="none" stroke="currentColor" stroke-width="2.5" stroke-linejoin="round"/></symbol>
  <symbol id="passport" viewBox="0 0 48 48"><rect x="11" y="6" width="26" height="36" rx="4" fill="none" stroke="currentColor" stroke-width="2.5"/><circle cx="24" cy="25" r="7" fill="none" stroke="currentColor" stroke-width="2.5"/><path d="M17 25h14M24 18c2 2 3 4.5 3 7s-1 5-3 7M24 18c-2 2-3 4.5-3 7s1 5 3 7M17 12h14" fill="none" stroke="currentColor" stroke-width="2" stroke-linecap="round"/></symbol>
  <symbol id="document" viewBox="0 0 48 48"><path d="M14 6h14l8 8v28H14a4 4 0 0 1-4-4V10a4 4 0 0 1 4-4Z" fill="none" stroke="currentColor" stroke-width="2.5" stroke-linejoin="round"/><path d="M28 6v9h8M17 24h14M17 31h10" fill="none" stroke="currentColor" stroke-width="2.5" stroke-linecap="round"/></symbol>
  <symbol id="graduate" viewBox="0 0 48 48"><path d="m5 19 19-10 19 10-19 10L5 19Z" fill="none" stroke="currentColor" stroke-width="2.5" stroke-linejoin="round"/><path d="M12 23v9c7 6 17 6 24 0v-9M43 20v12" fill="none" stroke="currentColor" stroke-width="2.5" stroke-linecap="round" stroke-linejoin="round"/></symbol>
  <symbol id="consult" viewBox="0 0 48 48"><path d="M8 12h24a4 4 0 0 1 4 4v12a4 4 0 0 1-4 4H20l-9 8v-8h-3a4 4 0 0 1-4-4V16a4 4 0 0 1 4-4Z" fill="none" stroke="currentColor" stroke-width="2.5" stroke-linejoin="round"/><circle cx="15" cy="22" r="2" fill="currentColor"/><circle cx="23" cy="22" r="2" fill="currentColor"/><circle cx="31" cy="22" r="2" fill="currentColor"/></symbol>
  <symbol id="checklist" viewBox="0 0 48 48"><rect x="10" y="7" width="28" height="36" rx="4" fill="none" stroke="currentColor" stroke-width="2.5"/><path d="M18 5h12v6H18z" fill="none" stroke="currentColor" stroke-width="2.5" stroke-linejoin="round"/><path d="m16 22 3 3 6-6M16 33h4M27 19h6M27 30h6" fill="none" stroke="currentColor" stroke-width="2.5" stroke-linecap="round" stroke-linejoin="round"/></symbol>
  <symbol id="route" viewBox="0 0 48 48"><circle cx="10" cy="12" r="4" fill="none" stroke="currentColor" stroke-width="2.5"/><circle cx="38" cy="36" r="4" fill="none" stroke="currentColor" stroke-width="2.5"/><path d="M10 16v6a6 6 0 0 0 6 6h10a6 6 0 0 1 6 6v2" fill="none" stroke="currentColor" stroke-width="2.5" stroke-linecap="round" stroke-dasharray="1 6"/></symbol>
  <symbol id="refresh" viewBox="0 0 48 48"><path d="M11 20a13 13 0 0 1 22-8.5M14 8v6h-6M37 28a13 13 0 0 1-22 8.5M34 40v-6h6" fill="none" stroke="currentColor" stroke-width="2.5" stroke-linecap="round" stroke-linejoin="round"/></symbol>
</svg>